<mxfile host="app.diagrams.net" agent="Mozilla/5.0 (Macintosh; Intel Mac OS X 10.15; rv:131.0) Gecko/20100101 Firefox/131.0" version="24.8.1">
  <diagram name="Page-1" id="Y-ZR-_vom6Y3PYilJpKA">
    <mxGraphModel dx="826" dy="797" grid="1" gridSize="10" guides="1" tooltips="1" connect="1" arrows="1" fold="1" page="1" pageScale="1" pageWidth="850" pageHeight="1100" math="0" shadow="0">
      <root>
        <mxCell id="0" />
        <mxCell id="1" parent="0" />
        <mxCell id="gsD88z3fyo4yp3TLUxgN-10" style="edgeStyle=orthogonalEdgeStyle;rounded=0;orthogonalLoop=1;jettySize=auto;html=1;exitX=1;exitY=0.5;exitDx=0;exitDy=0;entryX=0;entryY=0.5;entryDx=0;entryDy=0;" edge="1" parent="1" source="gsD88z3fyo4yp3TLUxgN-1" target="gsD88z3fyo4yp3TLUxgN-5">
          <mxGeometry relative="1" as="geometry" />
        </mxCell>
        <mxCell id="gsD88z3fyo4yp3TLUxgN-1" value="&lt;div&gt;Web/Mobile&lt;/div&gt;&lt;div&gt;Client&lt;/div&gt;" style="rounded=0;whiteSpace=wrap;html=1;" vertex="1" parent="1">
          <mxGeometry x="10" y="180" width="100" height="60" as="geometry" />
        </mxCell>
        <mxCell id="gsD88z3fyo4yp3TLUxgN-2" value="" style="rounded=0;whiteSpace=wrap;html=1;" vertex="1" parent="1">
          <mxGeometry x="425" y="170" width="100" height="60" as="geometry" />
        </mxCell>
        <mxCell id="gsD88z3fyo4yp3TLUxgN-3" value="" style="rounded=0;whiteSpace=wrap;html=1;" vertex="1" parent="1">
          <mxGeometry x="700" y="310" width="100" height="60" as="geometry" />
        </mxCell>
        <mxCell id="gsD88z3fyo4yp3TLUxgN-4" value="Gateway" style="rounded=0;whiteSpace=wrap;html=1;" vertex="1" parent="1">
          <mxGeometry x="310" y="180" width="60" height="60" as="geometry" />
        </mxCell>
        <mxCell id="gsD88z3fyo4yp3TLUxgN-11" style="edgeStyle=orthogonalEdgeStyle;rounded=0;orthogonalLoop=1;jettySize=auto;html=1;exitX=1;exitY=0.5;exitDx=0;exitDy=0;entryX=0;entryY=0.5;entryDx=0;entryDy=0;" edge="1" parent="1" source="gsD88z3fyo4yp3TLUxgN-5" target="gsD88z3fyo4yp3TLUxgN-4">
          <mxGeometry relative="1" as="geometry" />
        </mxCell>
        <mxCell id="gsD88z3fyo4yp3TLUxgN-5" value="LB" style="ellipse;whiteSpace=wrap;html=1;aspect=fixed;" vertex="1" parent="1">
          <mxGeometry x="160" y="170" width="80" height="80" as="geometry" />
        </mxCell>
        <mxCell id="gsD88z3fyo4yp3TLUxgN-7" value="" style="rounded=0;whiteSpace=wrap;html=1;" vertex="1" parent="1">
          <mxGeometry x="435" y="180" width="100" height="60" as="geometry" />
        </mxCell>
        <mxCell id="gsD88z3fyo4yp3TLUxgN-8" value="" style="rounded=0;whiteSpace=wrap;html=1;" vertex="1" parent="1">
          <mxGeometry x="445" y="190" width="100" height="60" as="geometry" />
        </mxCell>
        <mxCell id="gsD88z3fyo4yp3TLUxgN-9" value="Web Servers" style="text;html=1;align=center;verticalAlign=middle;resizable=0;points=[];autosize=1;strokeColor=none;fillColor=none;" vertex="1" parent="1">
          <mxGeometry x="435" y="258" width="90" height="30" as="geometry" />
        </mxCell>
      </root>
    </mxGraphModel>
  </diagram>
</mxfile>
